<?xml version="1.0" encoding="UTF-8" standalone="no"?>
<!DOCTYPE svg PUBLIC "-//W3C//DTD SVG 1.1//EN" "http://www.w3.org/Graphics/SVG/1.1/DTD/svg11.dtd">
<svg width="100%" height="100%" viewBox="0 0 75 75" version="1.1" xmlns="http://www.w3.org/2000/svg" xmlns:xlink="http://www.w3.org/1999/xlink" xml:space="preserve" xmlns:serif="http://www.serif.com/" style="fill-rule:evenodd;clip-rule:evenodd;stroke-linejoin:round;stroke-miterlimit:2;">
    <g transform="matrix(1.5625,0,0,1.5625,-87.8371,0)">
        <g id="Artboard1" transform="matrix(1,0,0,1,56.2157,0)">
            <rect x="0" y="0" width="48" height="48" style="fill:none;"/>
            <g transform="matrix(0.179207,0,0,0.180102,-109.487,-204.172)">
                <path d="M850.342,1178.16L850.342,1383.18C850.342,1392.55 842.699,1400.16 833.285,1400.16L628.011,1400.16C618.597,1400.16 610.954,1392.55 610.954,1383.18L610.954,1178.16C610.954,1168.79 618.597,1161.19 628.011,1161.19L833.285,1161.19C842.699,1161.19 850.342,1168.79 850.342,1178.16" style="fill:rgb(111,118,124);"/>
            </g>
            <g transform="matrix(0.180167,0,0,0.180102,-110.303,-204.172)">
                <path d="M815.087,1400.16L724.24,1309.76L753.474,1280.67L850.342,1377.06L850.342,1383.18C850.342,1392.55 842.699,1400.16 833.285,1400.16L815.087,1400.16Z" style="fill:rgb(176,181,184);"/>
            </g>
            <g transform="matrix(0.179207,0,0,0.180102,-109.487,-204.172)">
                <path d="M610.954,1377.92L610.954,1178.16C610.954,1168.79 618.597,1161.19 628.011,1161.19L828.063,1161.19L610.954,1377.92Z" style="fill:rgb(0,123,192);"/>
            </g>
            <g transform="matrix(0.179878,0,0,0.177962,-110.015,-201.175)">
                <path d="M730.743,1301.21L827.907,1400.16L633.578,1400.16L730.743,1301.21Z" style="fill:rgb(0,136,74);"/>
            </g>
            <g transform="matrix(1.10144e-17,-0.179878,0.177962,1.0897e-17,-206.275,158.061)">
                <path d="M730.743,1301.21L827.907,1400.16L633.578,1400.16L730.743,1301.21Z" style="fill:rgb(224,227,229);"/>
            </g>
            <g transform="matrix(-0.307781,3.76923e-17,-2.94129e-17,-0.240174,308.885,332.317)">
                <path d="M889.927,1215.58C890.832,1215.54 891.465,1225.09 892.538,1229.78C894.916,1240.18 899.141,1253.97 903.42,1263.47C911.359,1281.09 922.209,1297.49 928.363,1315.82C937.28,1342.37 921.65,1383.65 889.248,1383.65C857.011,1383.65 841.01,1342.41 850.206,1315.91C856.512,1297.75 867.523,1281.56 875.546,1264.08C879.714,1255.01 884.37,1240.12 886.873,1230.09C888.07,1225.3 889.065,1215.62 889.927,1215.58Z" style="fill:rgb(226,17,27);"/>
            </g>
            <g transform="matrix(0.18877,0,0,0.18877,-198.409,-213.092)">
                <circle cx="1237.5" cy="1193.78" r="28.998" style="fill:rgb(148,40,63);"/>
            </g>
            <g transform="matrix(0.179398,0,0,0.179398,-110.048,-203.34)">
                <path d="M660.825,1171.27C681.311,1171.27 698.169,1188.13 698.169,1208.62C698.169,1229.1 681.311,1245.96 660.825,1245.96C640.338,1245.96 623.48,1229.1 623.48,1208.62C623.48,1188.13 640.338,1171.27 660.825,1171.27ZM670.59,1178.41C667.509,1177.4 664.225,1176.86 660.825,1176.86C643.404,1176.86 629.068,1191.19 629.068,1208.62C629.068,1226.04 643.404,1240.37 660.825,1240.37C678.244,1240.37 692.577,1226.04 692.581,1208.62C692.581,1194.64 683.355,1182.65 670.712,1178.45L670.712,1178.41L670.59,1178.41ZM651.011,1232.96C641.352,1229.08 634.583,1219.66 634.583,1208.62C634.583,1197.59 641.412,1188.13 651.071,1184.26L651.063,1197.83L670.711,1197.83L670.711,1195.74L670.712,1184.31C680.3,1188.22 687.066,1197.64 687.066,1208.62C687.066,1219.61 680.367,1228.99 670.779,1232.9L670.779,1219.47L651.011,1219.51L651.011,1232.96ZM640.075,1208.33C640.075,1208.42 640.074,1208.52 640.074,1208.62C640.074,1208.72 640.075,1208.83 640.075,1208.93C640.152,1214.19 642.191,1218.98 645.492,1222.6L645.492,1194.67C645.457,1194.7 645.421,1194.73 645.386,1194.76C642.144,1198.37 640.147,1203.12 640.075,1208.33ZM676.092,1194.57L676.158,1198.73L676.158,1222.6C679.523,1218.91 681.577,1214.01 681.577,1208.62C681.577,1203.2 679.497,1198.27 676.092,1194.57ZM670.644,1213.94L670.644,1203.23L651.078,1203.23L651.078,1213.94L670.644,1213.94Z" style="fill:rgb(247,247,247);"/>
            </g>
        </g>
    </g>
</svg>
